<?xml version="1.0" standalone="no"?>
<!DOCTYPE svg PUBLIC "-//W3C//DTD SVG 20010904//EN"
 "http://www.w3.org/TR/2001/REC-SVG-20010904/DTD/svg10.dtd">
<svg version="1.0" xmlns="http://www.w3.org/2000/svg"
 width="512.000000pt" height="512.000000pt" viewBox="0 0 512.000000 512.000000"
 preserveAspectRatio="xMidYMid meet">

<g transform="translate(0.000000,512.000000) scale(0.100000,-0.100000)"
fill="#000000" stroke="none">
<path d="M1 3918 c1 -694 5 -1169 10 -1123 52 508 244 975 563 1371 84 105
276 297 380 380 386 310 855 506 1336 558 111 12 -7 14 -1082 15 l-1208 1 1
-1202z"/>
<path d="M2750 5113 c322 -32 577 -96 838 -211 833 -369 1420 -1163 1516
-2052 12 -111 14 6 15 1073 l1 1197 -1202 -2 c-662 0 -1187 -3 -1168 -5z"/>
<path d="M1 1208 l-1 -1208 1208 1 c1075 1 1193 3 1082 15 -477 51 -950 250
-1335 561 -127 102 -339 320 -433 445 -285 380 -456 808 -506 1268 -12 111
-14 -7 -15 -1082z"/>
<path d="M5110 2343 c0 -27 -7 -95 -15 -152 -86 -606 -409 -1181 -887 -1582
-402 -336 -869 -538 -1379 -593 -110 -12 13 -14 1084 -15 l1207 -1 0 1195 c0
657 -2 1195 -5 1195 -3 0 -5 -21 -5 -47z"/>
</g>
</svg>
